<?xml version="1.0" encoding="UTF-8" standalone="no"?><svg xmlns="http://www.w3.org/2000/svg" xmlns:xlink="http://www.w3.org/1999/xlink" contentStyleType="text/css" height="557px" preserveAspectRatio="none" style="width:862px;height:557px;background:#FFFFFF;" version="1.1" viewBox="0 0 862 557" width="862px" zoomAndPan="magnify"><defs/><g><rect fill="#FFFFFF" height="376.3281" style="stroke:#181818;stroke-width:1.0;" width="10" x="31" y="91.2969"/><rect fill="#FFFFFF" height="376.3281" style="stroke:#181818;stroke-width:1.0;" width="10" x="261" y="91.2969"/><rect fill="#FFFFFF" height="98.3984" style="stroke:#181818;stroke-width:1.0;" width="10" x="426" y="162.5625"/><rect fill="#FFFFFF" height="76.2656" style="stroke:#181818;stroke-width:1.0;" width="10" x="565" y="382.3594"/><line style="stroke:#181818;stroke-width:0.5;stroke-dasharray:5.0,5.0;" x1="36" x2="36" y1="81.2969" y2="476.625"/><line style="stroke:#181818;stroke-width:0.5;stroke-dasharray:5.0,5.0;" x1="266" x2="266" y1="81.2969" y2="476.625"/><line style="stroke:#181818;stroke-width:0.5;stroke-dasharray:5.0,5.0;" x1="431" x2="431" y1="81.2969" y2="476.625"/><line style="stroke:#181818;stroke-width:0.5;stroke-dasharray:5.0,5.0;" x1="569.5" x2="569.5" y1="81.2969" y2="476.625"/><text fill="#000000" font-family="sans-serif" font-size="14" lengthAdjust="spacing" textLength="56" x="5" y="77.9951">开发人员</text><ellipse cx="36" cy="13.5" fill="#E2E2F0" rx="8" ry="8" style="stroke:#181818;stroke-width:0.5;"/><path d="M36,21.5 L36,48.5 M23,29.5 L49,29.5 M36,48.5 L23,63.5 M36,48.5 L49,63.5 " fill="none" style="stroke:#181818;stroke-width:0.5;"/><text fill="#000000" font-family="sans-serif" font-size="14" lengthAdjust="spacing" textLength="56" x="5" y="488.6201">开发人员</text><ellipse cx="36" cy="500.4219" fill="#E2E2F0" rx="8" ry="8" style="stroke:#181818;stroke-width:0.5;"/><path d="M36,508.4219 L36,535.4219 M23,516.4219 L49,516.4219 M36,535.4219 L23,550.4219 M36,535.4219 L49,550.4219 " fill="none" style="stroke:#181818;stroke-width:0.5;"/><text fill="#000000" font-family="sans-serif" font-size="14" lengthAdjust="spacing" textLength="56" x="235" y="77.9951">测试人员</text><ellipse cx="266" cy="13.5" fill="#E2E2F0" rx="8" ry="8" style="stroke:#181818;stroke-width:0.5;"/><path d="M266,21.5 L266,48.5 M253,29.5 L279,29.5 M266,48.5 L253,63.5 M266,48.5 L279,63.5 " fill="none" style="stroke:#181818;stroke-width:0.5;"/><text fill="#000000" font-family="sans-serif" font-size="14" lengthAdjust="spacing" textLength="56" x="235" y="488.6201">测试人员</text><ellipse cx="266" cy="500.4219" fill="#E2E2F0" rx="8" ry="8" style="stroke:#181818;stroke-width:0.5;"/><path d="M266,508.4219 L266,535.4219 M253,516.4219 L279,516.4219 M266,535.4219 L253,550.4219 M266,535.4219 L279,550.4219 " fill="none" style="stroke:#181818;stroke-width:0.5;"/><rect fill="#E2E2F0" height="30.2969" rx="2.5" ry="2.5" style="stroke:#181818;stroke-width:0.5;" width="98" x="382" y="50"/><text fill="#000000" font-family="sans-serif" font-size="14" lengthAdjust="spacing" textLength="84" x="389" y="69.9951">测试用例评审</text><rect fill="#E2E2F0" height="30.2969" rx="2.5" ry="2.5" style="stroke:#181818;stroke-width:0.5;" width="98" x="382" y="475.625"/><text fill="#000000" font-family="sans-serif" font-size="14" lengthAdjust="spacing" textLength="84" x="389" y="495.6201">测试用例评审</text><rect fill="#E2E2F0" height="30.2969" rx="2.5" ry="2.5" style="stroke:#181818;stroke-width:0.5;" width="27" x="556.5" y="50"/><text fill="#000000" font-family="sans-serif" font-size="14" lengthAdjust="spacing" textLength="13" x="563.5" y="69.9951">CI</text><rect fill="#E2E2F0" height="30.2969" rx="2.5" ry="2.5" style="stroke:#181818;stroke-width:0.5;" width="27" x="556.5" y="475.625"/><text fill="#000000" font-family="sans-serif" font-size="14" lengthAdjust="spacing" textLength="13" x="563.5" y="495.6201">CI</text><rect fill="#FFFFFF" height="376.3281" style="stroke:#181818;stroke-width:1.0;" width="10" x="31" y="91.2969"/><rect fill="#FFFFFF" height="376.3281" style="stroke:#181818;stroke-width:1.0;" width="10" x="261" y="91.2969"/><rect fill="#FFFFFF" height="98.3984" style="stroke:#181818;stroke-width:1.0;" width="10" x="426" y="162.5625"/><rect fill="#FFFFFF" height="76.2656" style="stroke:#181818;stroke-width:1.0;" width="10" x="565" y="382.3594"/><line style="stroke:#181818;stroke-width:1.0;" x1="41" x2="83" y1="112.4297" y2="112.4297"/><line style="stroke:#181818;stroke-width:1.0;" x1="83" x2="83" y1="112.4297" y2="125.4297"/><line style="stroke:#181818;stroke-width:1.0;" x1="42" x2="83" y1="125.4297" y2="125.4297"/><polygon fill="#181818" points="52,121.4297,42,125.4297,52,129.4297,48,125.4297" style="stroke:#181818;stroke-width:1.0;"/><text fill="#000000" font-family="sans-serif" font-size="13" font-weight="bold" lengthAdjust="spacing" textLength="9" x="48" y="107.3638">1</text><text fill="#000000" font-family="sans-serif" font-size="13" lengthAdjust="spacing" textLength="193" x="61" y="107.3638">输出开发视角单元测试与e2e用例</text><line style="stroke:#181818;stroke-width:1.0;" x1="271" x2="318" y1="149.5625" y2="149.5625"/><line style="stroke:#181818;stroke-width:1.0;" x1="318" x2="318" y1="149.5625" y2="162.5625"/><line style="stroke:#181818;stroke-width:1.0;" x1="277" x2="318" y1="162.5625" y2="162.5625"/><polygon fill="#181818" points="287,158.5625,277,162.5625,287,166.5625,283,162.5625" style="stroke:#181818;stroke-width:1.0;"/><text fill="#000000" font-family="sans-serif" font-size="13" font-weight="bold" lengthAdjust="spacing" textLength="9" x="283" y="144.4966">2</text><text fill="#000000" font-family="sans-serif" font-size="13" lengthAdjust="spacing" textLength="128" x="296" y="144.4966">输出测试视角e2e用例</text><polygon fill="#181818" points="414,192.6953,424,196.6953,414,200.6953,418,196.6953" style="stroke:#181818;stroke-width:1.0;"/><line style="stroke:#181818;stroke-width:1.0;" x1="41" x2="420" y1="196.6953" y2="196.6953"/><text fill="#000000" font-family="sans-serif" font-size="13" font-weight="bold" lengthAdjust="spacing" textLength="9" x="48" y="191.6294">3</text><text fill="#000000" font-family="sans-serif" font-size="13" lengthAdjust="spacing" textLength="26" x="61" y="191.6294">参与</text><polygon fill="#181818" points="414,221.8281,424,225.8281,414,229.8281,418,225.8281" style="stroke:#181818;stroke-width:1.0;"/><line style="stroke:#181818;stroke-width:1.0;" x1="271" x2="420" y1="225.8281" y2="225.8281"/><text fill="#000000" font-family="sans-serif" font-size="13" font-weight="bold" lengthAdjust="spacing" textLength="9" x="278" y="220.7622">4</text><text fill="#000000" font-family="sans-serif" font-size="13" lengthAdjust="spacing" textLength="26" x="291" y="220.7622">参与</text><line style="stroke:#181818;stroke-width:1.0;" x1="436" x2="478" y1="259.9609" y2="259.9609"/><line style="stroke:#181818;stroke-width:1.0;" x1="478" x2="478" y1="259.9609" y2="272.9609"/><line style="stroke:#181818;stroke-width:1.0;" x1="431" x2="478" y1="272.9609" y2="272.9609"/><polygon fill="#181818" points="441,268.9609,431,272.9609,441,276.9609,437,272.9609" style="stroke:#181818;stroke-width:1.0;"/><text fill="#000000" font-family="sans-serif" font-size="13" font-weight="bold" lengthAdjust="spacing" textLength="9" x="443" y="254.895">5</text><text fill="#000000" font-family="sans-serif" font-size="13" lengthAdjust="spacing" textLength="102" x="456" y="254.895">输出最终e2e用例</text><path d="M436,280.9609 L436,305.9609 L587,305.9609 L587,290.9609 L577,280.9609 L436,280.9609 " fill="#FEFFDD" style="stroke:#181818;stroke-width:0.5;"/><path d="M577,280.9609 L577,290.9609 L587,290.9609 L577,280.9609 " fill="#FEFFDD" style="stroke:#181818;stroke-width:0.5;"/><text fill="#000000" font-family="sans-serif" font-size="13" lengthAdjust="spacing" textLength="130" x="442" y="298.0278">单元测试开发内部评审</text><line style="stroke:#181818;stroke-width:1.0;" x1="41" x2="83" y1="332.2266" y2="332.2266"/><line style="stroke:#181818;stroke-width:1.0;" x1="83" x2="83" y1="332.2266" y2="345.2266"/><line style="stroke:#181818;stroke-width:1.0;" x1="42" x2="83" y1="345.2266" y2="345.2266"/><polygon fill="#181818" points="52,341.2266,42,345.2266,52,349.2266,48,345.2266" style="stroke:#181818;stroke-width:1.0;"/><text fill="#000000" font-family="sans-serif" font-size="13" font-weight="bold" lengthAdjust="spacing" textLength="9" x="48" y="327.1606">6</text><text fill="#000000" font-family="sans-serif" font-size="13" lengthAdjust="spacing" textLength="78" x="61" y="327.1606">编写测试脚本</text><line style="stroke:#181818;stroke-width:1.0;" x1="271" x2="318" y1="369.3594" y2="369.3594"/><line style="stroke:#181818;stroke-width:1.0;" x1="318" x2="318" y1="369.3594" y2="382.3594"/><line style="stroke:#181818;stroke-width:1.0;" x1="277" x2="318" y1="382.3594" y2="382.3594"/><polygon fill="#181818" points="287,378.3594,277,382.3594,287,386.3594,283,382.3594" style="stroke:#181818;stroke-width:1.0;"/><text fill="#000000" font-family="sans-serif" font-size="13" font-weight="bold" lengthAdjust="spacing" textLength="9" x="283" y="364.2935">7</text><text fill="#000000" font-family="sans-serif" font-size="13" lengthAdjust="spacing" textLength="26" x="296" y="364.2935">接测</text><line style="stroke:#181818;stroke-width:1.0;" x1="575" x2="617" y1="416.4922" y2="416.4922"/><line style="stroke:#181818;stroke-width:1.0;" x1="617" x2="617" y1="416.4922" y2="429.4922"/><line style="stroke:#181818;stroke-width:1.0;" x1="576" x2="617" y1="429.4922" y2="429.4922"/><polygon fill="#181818" points="586,425.4922,576,429.4922,586,433.4922,582,429.4922" style="stroke:#181818;stroke-width:1.0;"/><text fill="#000000" font-family="sans-serif" font-size="13" font-weight="bold" lengthAdjust="spacing" textLength="9" x="582" y="411.4263">8</text><text fill="#000000" font-family="sans-serif" font-size="13" lengthAdjust="spacing" textLength="260" x="595" y="411.4263">执行测试用例，并生成代码覆盖率及测试报告</text><polygon fill="#181818" points="282,454.625,272,458.625,282,462.625,278,458.625" style="stroke:#181818;stroke-width:1.0;"/><line style="stroke:#181818;stroke-width:1.0;" x1="276" x2="569" y1="458.625" y2="458.625"/><text fill="#000000" font-family="sans-serif" font-size="13" font-weight="bold" lengthAdjust="spacing" textLength="9" x="288" y="453.5591">9</text><text fill="#000000" font-family="sans-serif" font-size="13" lengthAdjust="spacing" textLength="78" x="301" y="453.5591">企微通知测试</text></g></svg>